<svg width="23" height="20" viewBox="0 0 23 20" fill="none" xmlns="http://www.w3.org/2000/svg">
<path d="M22.4912 1.95021C22.4913 1.77357 22.4447 1.60007 22.3559 1.44735C22.2671 1.29464 22.1395 1.16817 21.986 1.08084C21.8324 0.993502 21.6585 0.948416 21.4819 0.95017C21.3053 0.951925 21.1323 1.00046 20.9805 1.09083C20.3952 1.43921 19.765 1.70601 19.1075 1.88383C18.1685 1.07806 16.9708 0.637129 15.7335 0.641636C14.3761 0.643198 13.0724 1.17223 12.0977 2.11702C11.123 3.06181 10.5537 4.3484 10.5099 5.70512C7.83384 5.27838 5.40849 3.88164 3.69631 1.78126C3.59315 1.65609 3.4614 1.55757 3.31217 1.494C3.16295 1.43043 3.00062 1.40368 2.83889 1.41601C2.67725 1.42932 2.52128 1.4818 2.38448 1.56892C2.24768 1.65603 2.13416 1.77516 2.05373 1.91601C1.64126 2.63582 1.40436 3.44276 1.36228 4.27131C1.3202 5.09986 1.47412 5.92666 1.81154 6.68456L1.80959 6.68651C1.65794 6.77991 1.53278 6.91066 1.44609 7.06625C1.35941 7.22185 1.31409 7.39708 1.31447 7.57519C1.31263 7.72211 1.32145 7.86898 1.34084 8.01464C1.44298 9.2729 2.00062 10.4507 2.9092 11.3271C2.84756 11.4446 2.80994 11.5731 2.79854 11.7052C2.78714 11.8373 2.80218 11.9704 2.84279 12.0967C3.2389 13.3308 4.08129 14.3727 5.2051 15.0185C4.06334 15.46 2.83052 15.614 1.61525 15.4668C1.39032 15.4386 1.16248 15.4876 0.969098 15.6059C0.775716 15.7242 0.628277 15.9047 0.550965 16.1178C0.473654 16.3309 0.47106 16.5639 0.543611 16.7787C0.616161 16.9935 0.759548 17.1772 0.95025 17.2998C3.04034 18.646 5.47393 19.3617 7.96002 19.3613C10.7793 19.393 13.53 18.4921 15.7843 16.7988C18.0385 15.1054 19.67 12.7145 20.4248 9.99801C20.7779 8.81464 20.9582 7.58648 20.96 6.35157C20.96 6.28614 20.96 6.21876 20.959 6.15138C21.4811 5.58831 21.8856 4.92668 22.1487 4.20527C22.4118 3.48387 22.5283 2.7172 22.4912 1.95021ZM19.1846 5.16212C19.0194 5.35746 18.9358 5.60891 18.9512 5.86427C18.961 6.02927 18.96 6.19527 18.96 6.35157C18.9579 7.39511 18.805 8.43287 18.5059 9.43263C17.8894 11.744 16.515 13.7817 14.603 15.2192C12.6909 16.6568 10.3517 17.4111 7.96002 17.3613C7.1009 17.3616 6.24474 17.2606 5.40924 17.0606C6.47465 16.7172 7.47083 16.1879 8.35162 15.4971C8.51385 15.3693 8.63257 15.1945 8.69151 14.9967C8.75044 14.7988 8.7467 14.5875 8.68079 14.3918C8.61489 14.1961 8.49005 14.0257 8.3234 13.9038C8.15675 13.7819 7.95647 13.7145 7.75002 13.7109C6.91885 13.698 6.12515 13.363 5.53615 12.7764C5.68557 12.7481 5.83401 12.7129 5.98147 12.6709C6.19748 12.6094 6.38651 12.477 6.51813 12.295C6.64975 12.1131 6.71629 11.8921 6.70704 11.6677C6.6978 11.4433 6.6133 11.2285 6.46715 11.058C6.32101 10.8874 6.12173 10.7711 5.90139 10.7275C5.41893 10.6323 4.96494 10.427 4.5747 10.1277C4.18447 9.82845 3.86852 9.44321 3.65139 9.00196C3.83212 9.02662 4.014 9.04194 4.19631 9.04786C4.41289 9.05113 4.6249 8.98543 4.80169 8.86026C4.97847 8.73509 5.11086 8.55694 5.17971 8.35157C5.24569 8.14433 5.24229 7.92123 5.17004 7.7161C5.09778 7.51096 4.96061 7.33499 4.77932 7.21485C4.33947 6.92182 3.97916 6.52427 3.73068 6.0578C3.48219 5.59134 3.35328 5.07052 3.35549 4.54201C3.35549 4.47561 3.35744 4.4092 3.36135 4.34377C5.60261 6.43402 8.50967 7.66621 11.5703 7.82326C11.7248 7.82934 11.8787 7.80024 12.0203 7.73816C12.1619 7.67607 12.2875 7.58262 12.3877 7.46486C12.4869 7.34596 12.5571 7.20566 12.5929 7.05501C12.6286 6.90437 12.6289 6.74748 12.5937 6.5967C12.5366 6.35806 12.5074 6.11357 12.5068 5.86818C12.5077 5.01271 12.848 4.19254 13.4529 3.58764C14.0578 2.98274 14.878 2.64251 15.7334 2.64161C16.1736 2.64043 16.6092 2.7305 17.0127 2.90615C17.4163 3.0818 17.7791 3.3392 18.0781 3.66212C18.1935 3.7862 18.3386 3.87871 18.4998 3.93085C18.661 3.98299 18.8329 3.99303 18.999 3.96001C19.4098 3.88006 19.8147 3.7724 20.2109 3.63775C19.9407 4.19072 19.5953 4.70369 19.1846 5.16212Z" fill="#F5EFDB"/>
</svg>
